<svg width="12" height="11" viewBox="0 0 12 11" fill="none" xmlns="http://www.w3.org/2000/svg">
<path d="M11.0021 3.57293L7.95832 3.12918L6.59791 0.370853C6.35416 -0.120813 5.64791 -0.127063 5.40207 0.370853L4.04166 3.12918L0.997906 3.57293C0.452073 3.6521 0.233323 4.32501 0.629156 4.71043L2.83124 6.85626L2.31041 9.8875C2.21666 10.4355 2.79374 10.8459 3.27707 10.5896L5.99999 9.15834L8.72291 10.5896C9.20624 10.8438 9.78332 10.4355 9.68957 9.8875L9.16874 6.85626L11.3708 4.71043C11.7667 4.32501 11.5479 3.6521 11.0021 3.57293ZM8.09582 6.50626L8.58957 9.38959L5.99999 8.02917L3.41041 9.38959L3.90416 6.50626L1.80832 4.4646L4.70416 4.04376L5.99999 1.41877L7.29582 4.04376L10.1917 4.4646L8.09582 6.50626Z" fill="#FB641A"/>
</svg>
