<svg width="12" height="11" viewBox="0 0 12 11" fill="none" xmlns="http://www.w3.org/2000/svg">
<g clip-path="url(#clip0)">
<path d="M11.0021 3.57287L7.95832 3.12912L6.59791 0.370792C6.35416 -0.120874 5.64791 -0.127124 5.40207 0.370792L4.04166 3.12912L0.997906 3.57287C0.452073 3.65204 0.233323 4.32495 0.629156 4.71037L2.83124 6.8562L2.31041 9.88744C2.21666 10.4354 2.79374 10.8458 3.27707 10.5895L5.99999 9.15828L8.72291 10.5895C9.20624 10.8437 9.78332 10.4354 9.68957 9.88744L9.16874 6.8562L11.3708 4.71037C11.7667 4.32495 11.5479 3.65204 11.0021 3.57287ZM8.09582 6.5062L8.58957 9.38953L5.99999 8.02911L3.41041 9.38953L3.90416 6.5062L1.80832 4.46454L4.70416 4.0437L5.99999 1.41871L7.29582 4.0437L10.1917 4.46454L8.09582 6.5062Z" fill="white"/>
</g>
<defs>
<clipPath id="clip0">
<rect width="12" height="10.6667" fill="white"/>
</clipPath>
</defs>
</svg>
